<svg width="707" height="469" viewBox="0 0 707 469" fill="none" xmlns="http://www.w3.org/2000/svg">
<path d="M272.275 186.407C272.256 184.828 271.611 183.32 270.482 182.217C269.929 181.678 269.273 181.257 268.552 180.981C267.832 180.705 267.062 180.579 266.291 180.611L148.659 185.442C147.676 185.493 146.754 185.928 146.089 186.654C145.425 187.379 145.071 188.336 145.106 189.319L151.076 446.927L270.042 445.44C270.8 445.429 271.549 445.266 272.244 444.96C272.938 444.654 273.565 444.213 274.085 443.661C275.154 442.531 275.739 441.028 275.715 439.474L272.275 186.407Z" fill="#5E931B"/>
<path d="M177.205 226.559L159.823 226.552L158.957 200.813H176.452L177.205 226.559Z" fill="#161119"/>
<path d="M204.294 226.487L187.758 226.481L187.072 200.813H203.715L204.294 226.487Z" fill="#161119"/>
<path d="M231.987 226.419L214.792 226.412L214.277 200.813H231.581L231.987 226.419Z" fill="#161119"/>
<path d="M259.524 226.348L242.422 226.341L242.084 200.813H259.292L259.524 226.348Z" fill="#161119"/>
<path d="M178.432 268.426L161.23 268.542L160.385 243.382L177.695 243.311L178.432 268.426Z" fill="#BDD0FB"/>
<path d="M205.241 268.249L188.875 268.358L188.203 243.266L204.672 243.198L205.241 268.249Z" fill="#BDD0FB"/>
<path d="M232.642 268.064L215.624 268.18L215.123 243.154L232.246 243.082L232.642 268.064Z" fill="#BDD0FB"/>
<path d="M259.899 267.884L242.973 267.996L242.643 243.038L259.674 242.97L259.899 267.884Z" fill="#161119"/>
<path d="M179.636 309.345L162.612 309.526L161.783 284.881L178.913 284.741L179.636 309.345Z" fill="#161119"/>
<path d="M206.168 309.059L189.969 309.233L189.311 284.656L205.609 284.52L206.168 309.059Z" fill="#161119"/>
<path d="M233.29 308.769L216.449 308.95L215.955 284.434L232.904 284.294L233.29 308.769Z" fill="#161119"/>
<path d="M260.263 308.482L243.511 308.66L243.188 284.209L260.045 284.069L260.263 308.482Z" fill="#161119"/>
<path d="M180.814 349.435L163.964 349.681L163.152 325.534L180.105 325.326L180.814 349.435Z" fill="#161119"/>
<path d="M207.073 349.05L191.041 349.285L190.396 325.2L206.527 325.002L207.073 349.05Z" fill="#161119"/>
<path d="M233.921 348.655L217.248 348.9L216.764 324.876L233.539 324.671L233.921 348.655Z" fill="#161119"/>
<path d="M260.624 348.263L244.04 348.508L243.723 324.545L260.409 324.341L260.624 348.263Z" fill="#161119"/>
<path d="M181.97 388.721L165.29 389.032L164.492 365.369L181.274 365.096L181.97 388.721Z" fill="#161119"/>
<path d="M207.964 388.24L192.092 388.534L191.461 364.932L207.428 364.673L207.964 388.24Z" fill="#161119"/>
<path d="M234.542 387.746L218.036 388.053L217.562 364.506L234.167 364.237L234.542 387.746Z" fill="#161119"/>
<path d="M260.979 387.255L244.558 387.562L244.248 364.073L260.764 363.807L260.979 387.255Z" fill="#161119"/>
<path d="M183.099 427.233L166.589 427.601L165.809 404.405L182.42 404.075L183.099 427.233Z" fill="#161119"/>
<path d="M208.833 426.657L193.121 427.008L192.504 403.87L208.311 403.553L208.833 426.657Z" fill="#161119"/>
<path d="M235.148 426.067L218.806 426.432L218.342 403.352L234.783 403.021L235.148 426.067Z" fill="#161119"/>
<path d="M261.324 425.484L245.067 425.845L244.764 402.82L261.116 402.493L261.324 425.484Z" fill="#161119"/>
<path d="M170.28 252.06C170.267 251.37 170.115 250.69 169.833 250.06C169.551 249.43 169.146 248.864 168.64 248.394C167.608 247.433 166.238 246.919 164.828 246.966L50.428 250.556C49.0426 250.586 47.7258 251.165 46.7669 252.166C45.8079 253.166 45.2853 254.507 45.3136 255.892L50.96 441.895C51.0141 443.264 51.6027 444.558 52.5996 445.499C53.5964 446.44 54.9222 446.952 56.2926 446.927L169.152 446.586C170.56 446.586 171.143 445.28 172.125 444.292C172.609 443.804 172.991 443.225 173.248 442.588C173.506 441.951 173.632 441.269 173.622 440.582L170.28 252.06Z" fill="#5E931B"/>
<g style="mix-blend-mode:overlay">
<path d="M64.9053 268.446L64.7246 263.792L101.937 262.159L102.104 266.823L64.9053 268.446Z" fill="#5E931B"/>
</g>
<g style="mix-blend-mode:overlay">
<path d="M65.4039 281.481L65.2266 276.837L102.405 275.231L102.572 279.889L65.4039 281.481Z" fill="#5E931B"/>
</g>
<g style="mix-blend-mode:overlay">
<path d="M65.9058 294.493L65.7285 289.859L102.873 288.284L103.04 292.931L65.9058 294.493Z" fill="#5E931B"/>
</g>
<g style="mix-blend-mode:overlay">
<path d="M66.4019 307.48L66.2246 302.853L103.335 301.308L103.502 305.949L66.4019 307.48Z" fill="#5E931B"/>
</g>
<g style="mix-blend-mode:overlay">
<path d="M66.9019 320.447L66.7246 315.827L103.804 314.313L103.968 318.94L66.9019 320.447Z" fill="#5E931B"/>
</g>
<g style="mix-blend-mode:overlay">
<path d="M67.8961 346.299L67.7188 341.699L104.727 340.243L104.894 344.856L67.8961 346.299Z" fill="#5E931B"/>
</g>
<g style="mix-blend-mode:overlay">
<path d="M69.3751 384.902L69.2012 380.327L106.11 378.959L106.274 383.545L69.3751 384.902Z" fill="#5E931B"/>
</g>
<g style="mix-blend-mode:overlay">
<path d="M67.398 333.383L67.2207 328.776L104.266 327.29L104.43 331.91L67.398 333.383Z" fill="#5E931B"/>
</g>
<g style="mix-blend-mode:overlay">
<path d="M68.3921 359.19L68.2148 354.598L105.192 353.172L105.356 357.775L68.3921 359.19Z" fill="#5E931B"/>
</g>
<g style="mix-blend-mode:overlay">
<path d="M68.8863 372.058L68.709 367.476L105.652 366.078L105.816 370.674L68.8863 372.058Z" fill="#5E931B"/>
</g>
<g style="mix-blend-mode:overlay">
<path d="M69.8707 397.723L69.6934 393.157L106.572 391.817L106.736 396.396L69.8707 397.723Z" fill="#5E931B"/>
</g>
<g style="mix-blend-mode:overlay">
<path d="M70.3609 410.519L70.1836 405.96L107.028 404.651L107.192 409.22L70.3609 410.519Z" fill="#5E931B"/>
</g>
<g style="mix-blend-mode:overlay">
<path d="M70.8497 423.291L70.6758 418.74L107.49 417.461L107.65 422.02L70.8497 423.291Z" fill="#5E931B"/>
</g>
<g style="mix-blend-mode:overlay">
<path d="M71.338 436.04L71.1641 431.498L107.944 430.247L108.104 434.799L71.338 436.04Z" fill="#5E931B"/>
</g>
<g style="mix-blend-mode:overlay">
<path d="M113.443 266.326L113.279 261.661L150.703 260.018L150.857 264.692L113.443 266.326Z" fill="#5E931B"/>
</g>
<g style="mix-blend-mode:overlay">
<path d="M113.9 279.401L113.736 274.744L151.126 273.131L151.276 277.799L113.9 279.401Z" fill="#5E931B"/>
</g>
<g style="mix-blend-mode:overlay">
<path d="M114.354 292.454L114.193 287.803L151.549 286.221L151.699 290.882L114.354 292.454Z" fill="#5E931B"/>
</g>
<g style="mix-blend-mode:overlay">
<path d="M114.808 305.482L114.645 300.838L151.97 299.287L152.116 303.937L114.808 305.482Z" fill="#5E931B"/>
</g>
<g style="mix-blend-mode:overlay">
<path d="M115.263 318.483L115.1 313.849L152.391 312.328L152.541 316.969L115.263 318.483Z" fill="#5E931B"/>
</g>
<g style="mix-blend-mode:overlay">
<path d="M116.164 344.416L116.004 339.8L153.227 338.337L153.374 342.961L116.164 344.416Z" fill="#5E931B"/>
</g>
<g style="mix-blend-mode:overlay">
<path d="M117.52 383.133L117.359 378.543L154.48 377.166L154.627 381.766L117.52 383.133Z" fill="#5E931B"/>
</g>
<g style="mix-blend-mode:overlay">
<path d="M115.716 331.46L115.553 326.836L152.81 325.343L152.96 329.977L115.716 331.46Z" fill="#5E931B"/>
</g>
<g style="mix-blend-mode:overlay">
<path d="M116.619 357.346L116.459 352.739L153.644 351.304L153.794 355.921L116.619 357.346Z" fill="#5E931B"/>
</g>
<g style="mix-blend-mode:overlay">
<path d="M117.07 370.251L116.91 365.652L154.065 364.247L154.212 368.857L117.07 370.251Z" fill="#5E931B"/>
</g>
<g style="mix-blend-mode:overlay">
<path d="M117.969 395.991L117.809 391.408L154.895 390.061L155.042 394.654L117.969 395.991Z" fill="#5E931B"/>
</g>
<g style="mix-blend-mode:overlay">
<path d="M118.416 408.824L118.256 404.252L155.308 402.936L155.458 407.519L118.416 408.824Z" fill="#5E931B"/>
</g>
<g style="mix-blend-mode:overlay">
<path d="M118.861 421.635L118.701 417.069L155.723 415.784L155.87 420.356L118.861 421.635Z" fill="#5E931B"/>
</g>
<g style="mix-blend-mode:overlay">
<path d="M119.309 434.421L119.148 429.865L156.136 428.607L156.283 433.173L119.309 434.421Z" fill="#5E931B"/>
</g>
<path d="M409.035 247.515C408.99 246.151 406.989 245.043 404.575 245.043H257.139C254.674 245.043 252.059 246.178 252.059 247.569V441.653C252.059 442.675 253.081 443.698 254.401 444.418C255.721 445.137 257.623 445.56 259.461 445.557L408.513 445.328C410.241 445.359 411.949 444.955 413.481 444.155C414.777 443.408 415.527 442.396 415.472 441.349L409.035 247.515Z" fill="#5E931B"/>
<g style="mix-blend-mode:overlay">
<path d="M324.366 258.797L276.137 258.702L276.154 255.299L324.332 255.384L324.366 258.797Z" fill="#BDD0FB"/>
</g>
<g style="mix-blend-mode:overlay">
<path d="M324.499 271.334L276.068 271.208L276.089 267.778L324.461 267.894L324.499 271.334Z" fill="#BDD0FB"/>
</g>
<g style="mix-blend-mode:overlay">
<path d="M324.632 283.974L276.004 283.821L276.021 280.36L324.595 280.506L324.632 283.974Z" fill="#BDD0FB"/>
</g>
<g style="mix-blend-mode:overlay">
<path d="M324.765 296.723L275.936 296.535L275.956 293.044L324.727 293.224L324.765 296.723Z" fill="#BDD0FB"/>
</g>
<g style="mix-blend-mode:overlay">
<path d="M324.901 309.573L275.867 309.352L275.888 305.836L324.864 306.048L324.901 309.573Z" fill="#BDD0FB"/>
</g>
<g style="mix-blend-mode:overlay">
<path d="M325.177 335.599L275.73 335.316L275.751 331.739L325.14 332.016L325.177 335.599Z" fill="#BDD0FB"/>
</g>
<g style="mix-blend-mode:overlay">
<path d="M325.597 375.475L275.52 375.086L275.54 371.417L325.559 371.796L325.597 375.475Z" fill="#BDD0FB"/>
</g>
<g style="mix-blend-mode:overlay">
<path d="M325.037 322.533L275.799 322.281L275.819 318.732L325 318.977L325.037 322.533Z" fill="#BDD0FB"/>
</g>
<g style="mix-blend-mode:overlay">
<path d="M325.313 348.781L275.662 348.46L275.679 344.853L325.276 345.163L325.313 348.781Z" fill="#BDD0FB"/>
</g>
<g style="mix-blend-mode:overlay">
<path d="M325.452 362.072L275.59 361.717L275.61 358.079L325.415 358.423L325.452 362.072Z" fill="#BDD0FB"/>
</g>
<g style="mix-blend-mode:overlay">
<path d="M325.741 388.991L275.449 388.568L275.47 384.868L325.7 385.281L325.741 388.991Z" fill="#BDD0FB"/>
</g>
<g style="mix-blend-mode:overlay">
<path d="M325.882 402.626L275.375 402.166L275.395 398.435L325.841 398.885L325.882 402.626Z" fill="#BDD0FB"/>
</g>
<g style="mix-blend-mode:overlay">
<path d="M326.03 416.377L275.305 415.882L275.325 412.118L325.989 412.602L326.03 416.377Z" fill="#BDD0FB"/>
</g>
<g style="mix-blend-mode:overlay">
<path d="M326.172 430.247L275.232 429.715L275.253 425.92L326.135 426.442L326.172 430.247Z" fill="#BDD0FB"/>
</g>
<g style="mix-blend-mode:overlay">
<path d="M387.601 258.92L339.065 258.824L339.014 255.411L387.492 255.497L387.601 258.92Z" fill="#BDD0FB"/>
</g>
<g style="mix-blend-mode:overlay">
<path d="M387.994 271.498L339.26 271.372L339.209 267.928L387.885 268.048L387.994 271.498Z" fill="#BDD0FB"/>
</g>
<g style="mix-blend-mode:overlay">
<path d="M388.391 284.178L339.453 284.022L339.398 280.551L388.282 280.701L388.391 284.178Z" fill="#BDD0FB"/>
</g>
<g style="mix-blend-mode:overlay">
<path d="M388.79 296.965L339.65 296.777L339.596 293.279L388.681 293.456L388.79 296.965Z" fill="#BDD0FB"/>
</g>
<g style="mix-blend-mode:overlay">
<path d="M389.194 309.86L339.849 309.638L339.795 306.109L389.085 306.321L389.194 309.86Z" fill="#BDD0FB"/>
</g>
<g style="mix-blend-mode:overlay">
<path d="M390.012 335.974L340.248 335.688L340.193 332.098L389.899 332.377L390.012 335.974Z" fill="#BDD0FB"/>
</g>
<g style="mix-blend-mode:overlay">
<path d="M391.262 375.983L340.861 375.591L340.803 371.912L391.146 372.29L391.262 375.983Z" fill="#BDD0FB"/>
</g>
<g style="mix-blend-mode:overlay">
<path d="M389.6 322.861L340.045 322.608L339.99 319.049L389.488 319.294L389.6 322.861Z" fill="#BDD0FB"/>
</g>
<g style="mix-blend-mode:overlay">
<path d="M390.424 349.197L340.452 348.876L340.395 345.259L390.312 345.569L390.424 349.197Z" fill="#BDD0FB"/>
</g>
<g style="mix-blend-mode:overlay">
<path d="M390.844 362.532L340.658 362.177L340.6 358.529L390.728 358.873L390.844 362.532Z" fill="#BDD0FB"/>
</g>
<g style="mix-blend-mode:overlay">
<path d="M391.687 389.546L341.068 389.12L341.01 385.407L391.568 385.823L391.687 389.546Z" fill="#BDD0FB"/>
</g>
<g style="mix-blend-mode:overlay">
<path d="M392.117 403.229L341.279 402.766L341.225 399.022L392.001 399.472L392.117 403.229Z" fill="#BDD0FB"/>
</g>
<g style="mix-blend-mode:overlay">
<path d="M392.547 417.028L341.488 416.53L341.434 412.752L392.428 413.24L392.547 417.028Z" fill="#BDD0FB"/>
</g>
<g style="mix-blend-mode:overlay">
<path d="M392.983 430.946L341.702 430.411L341.645 426.602L392.864 427.127L392.983 430.946Z" fill="#BDD0FB"/>
</g>
<path d="M337.533 5.18162C316.854 5.02136 295.99 8.29802 277.524 15.9561C234.583 33.785 198.1 80.9505 212.379 129.132C217.013 144.782 214.579 162.049 230.171 168.851C238.606 172.53 261.58 174.722 270.316 171.821C293.532 164.112 308.794 143.016 296.168 119.623C292.124 112.121 286.89 105.285 283.399 97.5214C279.907 89.7576 278.315 80.5414 281.875 72.8049C288.861 57.6252 312.077 52.7972 327.131 53.2541C344.898 53.7928 360.999 62.5794 370.559 77.6568C382.493 96.4439 385.493 119.299 383.751 141.11C381.883 164.446 372.042 182.268 357.296 200.172C344.602 215.587 330.619 230.381 322.176 248.48C314.43 265.095 311.9 283.507 311.549 301.67C311.48 305.195 293.958 338.398 294.033 348.542C294.033 349.974 313.908 354.72 315.34 354.737L351.796 355.143C352.566 355.153 353.308 354.857 353.86 354.32C354.412 353.783 354.728 353.049 354.738 352.279C355.291 302.928 370.471 255.875 408.897 222.733C422.877 210.674 437.937 200.85 448.81 185.63C464.307 163.934 471.951 142.58 469.745 115.804C467.73 91.3499 459.677 66.879 443.737 47.9043C426.603 27.5113 401.525 14.7763 375.466 9.28C362.988 6.66122 350.282 5.28835 337.533 5.18162Z" fill="#165227"/>
<path d="M375.673 410.482C375.673 433.176 363.091 453.252 340.4 453.252C335.497 453.252 318.824 453.296 314.463 451.721C298.642 446.007 298.588 433.855 298.588 416.063C298.588 393.369 306.249 371.056 328.934 371.056C351.618 371.056 375.673 387.787 375.673 410.482Z" fill="#165227"/>
<path d="M317.884 0.00582104C297.201 -0.157841 276.341 3.12223 257.875 10.7803C214.923 28.6127 178.461 75.7816 192.73 123.96C197.364 139.61 208.073 159.311 223.673 166.113C232.108 169.792 241.931 169.55 250.667 166.648C273.883 158.943 289.138 137.844 276.522 114.45C272.478 106.949 267.244 100.13 263.753 92.349C260.261 84.5682 258.672 75.369 262.232 67.6359C269.218 52.4528 292.431 47.6282 307.485 48.0817C325.252 48.6204 341.353 57.407 350.913 72.4844C362.83 91.2749 365.851 114.126 364.105 135.938C362.24 159.277 352.4 177.099 337.653 194.999C324.939 210.414 310.959 225.209 302.531 243.311C294.784 259.926 292.251 278.334 291.903 296.501C291.835 300.023 293.018 336.816 293.096 346.964C293.101 347.651 293.375 348.31 293.86 348.797C294.346 349.284 295.003 349.561 295.691 349.568L332.147 349.978C332.917 349.987 333.659 349.69 334.211 349.152C334.763 348.615 335.078 347.88 335.089 347.11C335.645 297.759 350.825 250.71 389.251 217.564C403.231 205.505 418.291 195.685 429.164 180.461C444.658 158.765 452.302 137.414 450.096 110.635C448.081 86.1809 440.031 61.7134 424.088 42.7388C406.958 22.356 381.88 9.61758 355.816 4.12466C343.34 1.49691 330.634 0.117165 317.884 0.00582104Z" fill="#77BE1D"/>
<path d="M349.082 439.945C365.128 423.899 365.128 397.882 349.082 381.836C333.035 365.789 307.019 365.789 290.973 381.836C274.926 397.882 274.926 423.899 290.973 439.945C307.019 455.992 333.036 455.992 349.082 439.945Z" fill="#77BE1D"/>
<path d="M206.331 119.046C206.252 119.048 206.176 119.024 206.114 118.976C206.051 118.928 206.008 118.86 205.99 118.784C203.119 105.827 202.699 85.5092 217.003 62.4021C230.982 39.8371 250.564 24.7393 275.239 17.5279C301.63 9.81189 332.968 11.4656 368.387 22.4412C368.438 22.446 368.487 22.462 368.53 22.488C368.573 22.514 368.611 22.5494 368.639 22.5916C368.667 22.6338 368.685 22.6817 368.692 22.7319C368.7 22.7821 368.696 22.8332 368.681 22.8816C368.666 22.93 368.64 22.9745 368.606 23.0117C368.571 23.049 368.529 23.0781 368.482 23.097C368.435 23.1159 368.384 23.1241 368.334 23.1209C368.283 23.1177 368.234 23.1034 368.19 23.0788C332.9 12.1441 301.702 10.4904 275.427 18.1689C250.915 25.3291 231.443 40.3315 217.569 62.7533C203.385 85.6695 203.797 105.793 206.658 118.641C206.676 118.727 206.659 118.816 206.612 118.891C206.565 118.965 206.491 119.018 206.406 119.04L206.331 119.046Z" fill="#5E931B"/>
<path d="M214.974 139.965C214.921 139.965 214.868 139.952 214.821 139.929C214.774 139.905 214.733 139.871 214.701 139.828C214.673 139.787 211.632 135.587 208.887 128.406C208.875 128.328 208.889 128.249 208.928 128.181C208.967 128.113 209.029 128.06 209.102 128.032C209.175 128.004 209.256 128.002 209.331 128.027C209.405 128.051 209.469 128.101 209.511 128.167C212.222 135.259 215.212 139.395 215.243 139.436C215.276 139.486 215.295 139.545 215.299 139.605C215.302 139.665 215.29 139.725 215.262 139.779C215.235 139.833 215.194 139.878 215.143 139.911C215.092 139.943 215.034 139.962 214.974 139.965Z" fill="#5E931B"/>
<path d="M333.776 384.064C333.724 384.064 333.672 384.052 333.626 384.03C329.413 381.885 324.751 380.775 320.025 380.79C319.934 380.79 319.847 380.755 319.783 380.691C319.72 380.627 319.684 380.54 319.684 380.449C319.684 380.359 319.72 380.272 319.783 380.208C319.847 380.144 319.934 380.109 320.025 380.109C324.855 380.094 329.62 381.229 333.926 383.419C334.004 383.461 334.062 383.531 334.09 383.615C334.117 383.699 334.111 383.79 334.072 383.869C334.045 383.926 334.004 383.974 333.951 384.008C333.899 384.042 333.838 384.062 333.776 384.064Z" fill="#5E931B"/>
<path d="M303.009 436.463C302.942 436.462 302.877 436.442 302.822 436.405C298.427 433.44 294.872 429.391 292.503 424.649C290.133 419.907 289.028 414.633 289.295 409.338C289.562 404.044 291.192 398.908 294.028 394.428C296.863 389.949 300.807 386.278 305.478 383.77C305.556 383.73 305.648 383.722 305.732 383.747C305.817 383.773 305.888 383.83 305.931 383.907C305.972 383.985 305.98 384.077 305.955 384.161C305.929 384.246 305.872 384.317 305.795 384.36C301.226 386.813 297.368 390.404 294.595 394.786C291.821 399.167 290.227 404.191 289.966 409.37C289.704 414.549 290.785 419.707 293.103 424.346C295.421 428.985 298.898 432.946 303.197 435.846C303.252 435.888 303.292 435.946 303.314 436.013C303.335 436.079 303.335 436.15 303.314 436.216C303.294 436.282 303.254 436.341 303.199 436.384C303.145 436.427 303.079 436.452 303.009 436.456V436.463Z" fill="#5E931B"/>
<path d="M369.205 140.288L365.035 163.869C358.331 192.712 357.694 216.753 361.172 237.05C355.416 237.289 349.371 237.695 343.077 238.315C335.31 239.083 327.975 240.092 321.115 241.258C324.74 211.935 344.256 163.215 344.256 163.215C356.03 146.221 357.431 157.282 369.205 140.288Z" fill="url(#paint0_linear_1839_1861)"/>
<path d="M321.528 90.5999C323.861 90.5371 326.178 91.0005 328.307 91.9555C330.436 92.9106 332.323 94.3328 333.827 96.1166L363.579 131.369C363.579 131.369 368.994 130.264 369.502 119.895C370.01 109.527 381.023 108.275 381.023 108.275C381.023 108.275 379.434 122.739 376.41 144.141C374.681 156.382 367.446 165.315 361.564 170.737L344.356 164.814C328.566 142.246 318.784 117.372 313.328 90.8249L321.528 90.5999Z" fill="url(#paint1_linear_1839_1861)"/>
<path d="M508.395 104.951C519.067 126.224 523.524 147.892 524.86 168.067C522.565 168.923 491.933 190.171 471.428 169.601C475.813 155.485 475.086 134.233 473.971 112.435L508.395 104.951Z" fill="url(#paint2_linear_1839_1861)"/>
<path d="M452.825 49.0194C452.236 49.9707 436.93 122.163 436.93 122.163L478.336 130.025L503.008 63.7661C503.008 63.7661 462.649 33.1237 452.825 49.0194Z" fill="url(#paint3_linear_1839_1861)"/>
<path d="M487.202 69.651C487.749 70.3971 488.118 71.2585 488.281 72.1693C488.443 73.0801 488.395 74.016 488.14 74.9052L478.03 110.287C477.876 110.822 477.646 111.333 477.348 111.804C475.715 114.413 469.847 122.303 461.94 115.824C455.199 110.304 448.929 105.323 443.306 104.081C442.525 103.915 441.717 103.904 440.932 104.051C440.146 104.198 439.397 104.499 438.728 104.938C438.059 105.376 437.484 105.942 437.036 106.604C436.587 107.266 436.275 108.01 436.116 108.794C434.704 115.572 432.133 129.309 431.564 141.833C431.501 143.348 432.013 144.831 432.995 145.985C433.978 147.14 435.36 147.882 436.866 148.062C445.093 149.085 461.224 150.582 474.713 148.887C475.799 148.751 476.829 148.322 477.691 147.647C478.553 146.971 479.216 146.074 479.609 145.052C483.151 135.876 493.186 110.198 497.134 103.386C500.803 97.0576 510.548 96.461 515.032 96.5394C515.87 96.5565 516.704 96.3997 517.479 96.0787C518.254 95.7577 518.954 95.2795 519.536 94.6743C523.078 90.9987 528.742 82.686 519.13 73.7664C517.99 72.6782 517.319 71.1886 517.259 69.6137C517.199 68.0388 517.755 66.5026 518.809 65.331C522.693 60.9667 526.246 53.7689 518.844 45.6506C511.342 37.4265 502.303 38.9336 496.5 41.2794C493.929 42.3023 490.861 41.6443 489.176 39.445C488.43 38.4665 487.281 37.7675 485.521 37.8766C482.207 38.0812 479.384 35.7592 479.142 32.4451C478.753 26.7578 476.073 19.9556 466.185 17.5279C448.036 13.0715 437.981 30.9585 437.667 43.8673C437.353 56.7762 457.306 60.4825 468.807 58.9106C477.277 57.7548 484.168 65.4708 487.202 69.651Z" fill="#272039"/>
<path d="M490.963 116.81C490.963 116.81 494.816 93.9651 504.022 92.2978C513.228 90.6305 522.717 97.7055 514.251 110.781C503.749 127.045 490.963 116.81 490.963 116.81Z" fill="url(#paint4_linear_1839_1861)"/>
<path d="M506.145 34.5863C504.374 34.5314 502.604 34.6975 500.874 35.0807C496.496 36.0081 490.665 38.2585 492.186 42.4694C494.467 48.7908 506.299 42.8819 512.596 53.0767C518.151 62.0577 513.619 71.8093 515.303 81.4892C516.132 86.1979 519.156 93.1877 523.364 95.9393C525.243 97.1701 540.098 99.5228 540.91 96.8871C540.91 96.8871 545.039 83.4907 545.039 83.4839C548.755 71.4308 534.469 51.348 527.125 43.2297C521.437 36.956 513.732 34.8966 506.145 34.5863Z" fill="url(#paint5_linear_1839_1861)"/>
<path d="M520.227 82.9588L534.435 94.7937C561.685 106.386 581.488 120.025 595.808 134.816C601.005 125.044 609.413 113.748 622.82 104.934C595.355 91.4045 574.907 85.7854 574.907 85.7854C519.494 63.4864 520.227 82.9588 520.227 82.9588Z" fill="url(#paint6_linear_1839_1861)"/>
<path d="M629.147 170.065C627.824 164.643 620.87 160.595 595.829 134.809C601.025 125.037 609.433 113.741 622.826 104.927C663.404 127.492 777.736 208.277 640.734 267.458C640.734 267.458 640.731 267.447 640.726 267.425C627.035 275.752 610.386 281.57 591.247 284.407L591.244 284.398C590.796 286.432 590.271 288.45 589.672 290.445C567.281 364.066 566.684 425.14 566.885 439.211C566.901 440.144 566.635 441.06 566.123 441.84C565.611 442.621 564.876 443.229 564.014 443.586C533.658 456.12 474.903 449.467 455.175 446.74C453.443 446.49 451.88 445.566 450.827 444.168C449.775 442.77 449.318 441.013 449.556 439.279C454.008 404.314 443.611 358.277 430.402 317.338C419.274 330.858 403.671 344.154 382.604 350.588L382.599 350.589C373.372 353.406 359.641 357.597 346.867 352.109C321.656 341.273 309.832 296.872 321.107 241.258C326.416 239.287 333.75 237.19 361.174 237.05C364.666 261.862 368.334 267.567 371.209 267.713C374.594 267.888 376.467 260.268 379.196 249.17C383.807 230.413 390.861 201.722 411.783 183.942C418.217 178.476 425.372 174.544 432.849 171.779C472.209 154.377 519.116 159.291 553.032 165.398C578.441 167.573 595.508 174.931 609.911 181.139C616.312 183.898 622.187 186.431 628.035 188.181C628.538 177.557 629.993 173.531 629.147 170.065Z" fill="#77BE1D"/>
<path d="M29.2677 333.298H128.069C129.793 333.298 131.5 333.637 133.092 334.297C134.685 334.957 136.132 335.923 137.351 337.142C138.57 338.361 139.537 339.809 140.197 341.401C140.856 342.994 141.196 344.701 141.196 346.425V446.927H16.1406V346.425C16.1406 344.701 16.4802 342.994 17.1399 341.401C17.7996 339.809 18.7665 338.361 19.9855 337.142C21.2044 335.923 22.6515 334.957 24.2442 334.297C25.8369 333.637 27.5438 333.298 29.2677 333.298Z" fill="#77BE1D"/>
<path d="M125.052 446.927H0V346.425C0 344.701 0.339542 342.994 0.999241 341.401C1.65894 339.809 2.62587 338.361 3.84484 337.142C5.0638 335.923 6.51092 334.957 8.10357 334.297C9.69623 333.637 11.4032 333.298 13.1271 333.298H111.928C115.409 333.299 118.747 334.682 121.208 337.144C123.669 339.605 125.052 342.944 125.052 346.425V446.927Z" fill="#5E931B"/>
<path d="M129.198 333.673C128.772 333.69 128.353 333.559 128.013 333.302C127.672 333.045 127.431 332.679 127.33 332.264L97.8567 176.246C97.6828 175.326 98.3784 174.453 99.4115 174.296C100.445 174.139 101.42 174.763 101.594 175.684L131.067 331.699C131.24 332.623 130.545 333.495 129.515 333.649C129.41 333.665 129.304 333.673 129.198 333.673Z" fill="#77BE1D"/>
<path d="M29.7654 333.676C29.6396 333.675 29.5142 333.663 29.3903 333.642C28.3674 333.454 27.6855 332.565 27.9071 331.647L62.6479 177.648C62.7813 177.184 63.0868 176.789 63.502 176.543C63.9171 176.297 64.4104 176.219 64.8812 176.325C65.9041 176.509 66.586 177.402 66.3644 178.316L31.6202 332.316C31.5092 332.718 31.2657 333.071 30.9291 333.318C30.5925 333.565 30.1825 333.691 29.7654 333.676Z" fill="#77BE1D"/>
<path d="M105.794 214.813H57.2579C57.0178 214.843 56.7739 214.822 56.5425 214.751C56.3111 214.68 56.0975 214.561 55.9159 214.401C55.7342 214.241 55.5887 214.044 55.4891 213.824C55.3894 213.603 55.3379 213.364 55.3379 213.122C55.3379 212.88 55.3894 212.64 55.4891 212.42C55.5887 212.199 55.7342 212.002 55.9159 211.842C56.0975 211.682 56.3111 211.563 56.5425 211.492C56.7739 211.421 57.0178 211.4 57.2579 211.431H105.794C106.034 211.4 106.278 211.421 106.509 211.492C106.741 211.563 106.954 211.682 107.136 211.842C107.318 212.002 107.463 212.199 107.563 212.42C107.663 212.64 107.714 212.88 107.714 213.122C107.714 213.364 107.663 213.603 107.563 213.824C107.463 214.044 107.318 214.241 107.136 214.401C106.954 214.561 106.741 214.68 106.509 214.751C106.278 214.822 106.034 214.843 105.794 214.813Z" fill="#77BE1D"/>
<path d="M106.72 243.014H56.3396C56.1034 243.026 55.8671 242.992 55.6441 242.913C55.4211 242.834 55.2159 242.712 55.0402 242.554C54.8644 242.395 54.7216 242.204 54.6199 241.99C54.5181 241.777 54.4595 241.545 54.4473 241.309C54.4473 240.375 55.2963 239.604 56.3396 239.604H106.72C107.767 239.604 108.616 240.361 108.616 241.309C108.616 242.257 107.743 243.014 106.72 243.014Z" fill="#77BE1D"/>
<path d="M111.28 243.014H50.22C49.1732 243.014 48.3242 242.257 48.3242 241.309C48.3242 240.361 49.1732 239.604 50.22 239.604H111.28C112.326 239.604 113.175 240.361 113.175 241.309C113.175 242.257 112.326 243.014 111.28 243.014Z" fill="#77BE1D"/>
<path d="M106.72 271.222H56.3396C55.2963 271.222 54.4473 270.465 54.4473 269.517C54.4473 268.569 55.2963 267.812 56.3396 267.812H106.72C107.767 267.812 108.616 268.569 108.616 269.517C108.616 270.465 107.743 271.222 106.72 271.222Z" fill="#77BE1D"/>
<path d="M117.114 271.222H44.0213C42.9779 271.222 42.1289 270.465 42.1289 269.517C42.1289 268.569 42.9779 267.812 44.0213 267.812H117.114C118.16 267.812 119.006 268.569 119.006 269.517C119.006 270.465 118.16 271.222 117.114 271.222Z" fill="#77BE1D"/>
<path d="M106.72 299.433H38.1458C37.099 299.433 36.25 298.676 36.25 297.728C36.25 296.78 37.099 296.023 38.1458 296.023H106.72C107.767 296.023 108.616 296.78 108.616 297.728C108.616 298.676 107.743 299.433 106.72 299.433Z" fill="#77BE1D"/>
<path d="M121.828 299.433H38.1458C37.099 299.433 36.25 298.676 36.25 297.728C36.25 296.78 37.099 296.023 38.1458 296.023H121.828C122.875 296.023 123.724 296.78 123.724 297.728C123.724 298.676 122.875 299.433 121.828 299.433Z" fill="#77BE1D"/>
<path d="M61.3988 204.73C61.3988 204.73 60.1679 206.667 59.8611 212.092C59.8536 212.212 59.8708 212.332 59.9114 212.444C59.9521 212.557 60.0154 212.661 60.0974 212.748C60.1795 212.836 60.2786 212.906 60.3887 212.953C60.4987 213.001 60.6174 213.026 60.7373 213.026H70.3491C70.439 213.027 70.5278 213.006 70.6082 212.966C70.6885 212.925 70.758 212.866 70.811 212.794C70.864 212.721 70.8989 212.637 70.9129 212.548C70.9268 212.459 70.9194 212.368 70.8912 212.283C70.3252 210.615 68.6238 206.548 64.8221 204.226L61.3988 204.73Z" fill="url(#paint7_linear_1839_1861)"/>
<path d="M60.9785 201.055L61.5241 205.614C61.5462 205.805 61.6319 205.983 61.7672 206.119C61.9026 206.256 62.0799 206.343 62.2708 206.367C62.9506 206.451 63.6386 206.445 64.3166 206.347C64.644 206.288 64.9402 206.116 65.153 205.86C65.3657 205.604 65.4812 205.281 65.4792 204.949V200.547L60.9785 201.055Z" fill="url(#paint8_linear_1839_1861)"/>
<path d="M85.1793 204.243C83.9892 206.306 83.368 208.647 83.3791 211.028C83.3906 211.473 83.5753 211.895 83.8938 212.205C84.2123 212.515 84.6393 212.689 85.0839 212.689H100.015C100.166 212.688 100.314 212.639 100.436 212.55C100.558 212.46 100.648 212.334 100.694 212.189C100.74 212.045 100.739 211.89 100.691 211.746C100.643 211.602 100.551 211.478 100.427 211.39C97.6006 209.405 92.0463 205.699 88.0332 204.229L85.1793 204.243Z" fill="url(#paint9_linear_1839_1861)"/>
<path d="M83.6445 199.302L84.8038 204.932C84.8332 205.081 84.8918 205.224 84.9762 205.351C85.0607 205.478 85.1694 205.587 85.2961 205.672C85.4228 205.756 85.565 205.816 85.7146 205.845C85.8641 205.875 86.0181 205.875 86.1677 205.845C86.6332 205.738 87.0771 205.553 87.4804 205.297C87.7039 205.154 87.8799 204.948 87.9862 204.705C88.0924 204.463 88.1241 204.194 88.0771 203.933L86.8769 197.113L83.6445 199.302Z" fill="url(#paint10_linear_1839_1861)"/>
<path d="M63.1097 121.017C63.1097 121.017 59.0761 124.573 58.3192 128.859C57.5623 133.145 60.4673 202.657 60.4673 202.657C60.4673 202.657 64.5009 203.339 66.5808 202.068C66.5808 202.068 69.0459 156.951 70.9178 146.525C70.9178 146.525 80.7478 193.26 83.4687 201.706C83.4687 201.706 87.3557 202.177 88.607 201.437C88.607 201.437 86.0327 140.854 82.8106 130.083L63.1097 121.017Z" fill="#272039"/>
<path d="M102.903 80.8483C85.9228 79.4503 81.4902 82.952 81.4902 82.952L89.6495 95.8166C89.6495 95.8166 106.329 95.4756 118.29 86.2696C116.354 84.1317 114.746 81.7188 113.517 79.1094C110.172 80.5394 106.529 81.1361 102.903 80.8483Z" fill="url(#paint11_linear_1839_1861)"/>
<path d="M129.484 55.9238C129.48 55.8073 129.436 55.6956 129.361 55.6068C129.285 55.518 129.182 55.4572 129.068 55.4344C128.953 55.4115 128.835 55.4279 128.731 55.4808C128.627 55.5337 128.544 55.6201 128.495 55.7261L126.327 60.3563C125.909 61.2494 125.776 62.2492 125.945 63.2204L126.702 65.9106C126.815 66.5585 126.79 67.2231 126.627 67.8603C126.464 68.4975 126.168 69.0928 125.757 69.6067C123.766 72.0957 119.528 76.6408 113.482 79.1537C114.711 81.7631 116.32 84.176 118.256 86.3139C122.641 82.9315 126.391 78.3592 128.444 72.1639C128.922 72.017 129.339 71.716 129.629 71.3077C129.919 70.8995 130.065 70.407 130.046 69.9067L129.484 55.9238Z" fill="url(#paint12_linear_1839_1861)"/>
<path d="M108.492 88.3154C102.515 81.8746 91.1333 78.9661 84.5425 77.7694C83.1449 77.5132 81.7018 77.7572 80.4661 78.4586C79.2304 79.1599 78.2811 80.2739 77.7846 81.6052C74.8182 89.5769 66.7544 110.318 65.1894 113.881C63.9074 116.806 62.5674 119.677 61.7184 121.45C61.4733 121.961 61.4408 122.549 61.6281 123.084C61.8153 123.619 62.2071 124.057 62.7174 124.304C68.2615 126.977 78.238 130.002 82.2853 131.181C82.4923 131.241 82.7103 131.252 82.9222 131.213C83.134 131.174 83.3339 131.086 83.5059 130.956C83.678 130.827 83.8174 130.659 83.9133 130.466C84.0092 130.273 84.0588 130.06 84.0583 129.845C84.059 129.059 84.2735 128.288 84.6789 127.615L99.9983 102.087C109.545 112.674 117.906 113.642 124.33 111.324C123.266 108.065 122.554 104.702 122.205 101.292C112.713 99.666 108.492 88.3154 108.492 88.3154Z" fill="url(#paint13_linear_1839_1861)"/>
<path d="M137.889 99.5161L136.185 97.2316C130.641 101.04 126.007 101.944 122.205 101.293C122.554 104.702 123.266 108.065 124.329 111.324C132.792 108.272 137.889 99.5161 137.889 99.5161Z" fill="url(#paint14_linear_1839_1861)"/>
<path d="M136.682 99.5671L146.328 99.9422L155.193 94.9812C153.917 94.1833 146.709 95.8165 146.709 95.8165C146.709 95.8165 139.171 94.6777 137.132 94.6743C135.427 94.6743 135.679 97.1088 135.809 97.9339C135.836 98.101 135.857 98.2033 135.857 98.2033L136.682 99.5671Z" fill="url(#paint15_linear_1839_1861)"/>
<path d="M93.6043 65.9447L88.5137 78.366C88.5137 78.366 94.3646 82.4132 99.0835 82.028L101.607 70.8614L93.6043 65.9447Z" fill="url(#paint16_linear_1839_1861)"/>
<path d="M102.202 57.4752C102.291 57.6014 104.357 65.6992 105.356 69.6237C105.626 70.6807 104.944 71.9593 103.853 71.9593L98.3631 72.1605C97.2345 71.8195 95.9763 70.7967 95.6354 69.4839L93.293 60.6973C93.293 60.6973 100.242 54.71 102.202 57.4752Z" fill="url(#paint17_linear_1839_1861)"/>
<path d="M96.0243 62.46C95.8501 63.1533 95.8442 63.8781 96.0072 64.574C96.3482 65.8322 97.0301 66.9608 97.4802 68.1814C96.7906 67.6905 96.0413 67.2895 95.2503 66.988C94.7893 66.8311 94.2874 66.8438 93.8349 67.0238C93.3824 67.2038 93.009 67.5393 92.7817 67.97C92.4646 68.5599 92.4578 69.2589 92.301 69.9135C91.885 71.649 90.695 72.5969 88.8913 71.9593C89.2662 71.7949 89.5972 71.5448 89.8577 71.2292C90.1183 70.9135 90.3012 70.5411 90.3916 70.142C90.4458 69.9656 90.4523 69.778 90.4103 69.5983C90.3684 69.4186 90.2796 69.2532 90.1529 69.1191C89.7812 68.8224 89.2425 69.0202 88.7652 69.0304C85.0555 69.0986 88.0832 63.575 87.4831 62.1736C86.9956 60.9973 85.959 60.4177 85.8943 59.0129C85.7613 56.0124 89.3039 54.502 91.8338 55.0782C92.0589 55.1293 92.3316 55.1771 92.4817 55.0032C92.5349 54.9337 92.5721 54.8534 92.5908 54.7679C93.2898 52.2857 95.922 50.3354 98.5167 51.4776C99.9658 52.1595 101.435 51.4401 102.844 52.5005C103.428 52.9742 103.911 53.5612 104.262 54.2263C104.614 54.8914 104.827 55.6207 104.889 56.3704C105.091 58.6992 101.524 59.5925 99.4339 59.4391C97.6302 59.3061 96.4164 60.82 96.0243 62.46Z" fill="#272039"/>
<path d="M97.1355 67.9598C97.1355 67.9598 95.6694 65.0037 93.985 64.8059C92.3006 64.6082 90.9572 65.7299 92.9212 67.7518C94.8851 69.7738 97.1355 67.9598 97.1355 67.9598Z" fill="url(#paint18_linear_1839_1861)"/>
<path d="M133.243 45.5449L221.044 44.9891C223.056 44.9891 224.689 46.5132 224.672 48.3988L224.304 93.9515C224.304 95.8507 222.599 97.3611 220.591 97.31L133.737 94.8585C131.811 94.8039 130.269 93.331 130.242 91.517L129.662 48.9716C129.635 47.0929 131.241 45.5551 133.243 45.5449Z" fill="#5E931B"/>
<path d="M220.702 94.5243L133.828 92.066C133.671 92.0651 133.521 92.003 133.408 91.8929C133.296 91.7827 133.232 91.6332 133.228 91.4761L132.635 48.9375C132.633 48.8559 132.649 48.7748 132.68 48.6996C132.712 48.6244 132.759 48.5567 132.819 48.5011C132.936 48.3905 133.091 48.3294 133.252 48.3306L221.054 47.7748C221.217 47.7719 221.375 47.8331 221.493 47.9453C221.553 48.0002 221.601 48.0672 221.632 48.1419C221.664 48.2166 221.679 48.2972 221.678 48.3783L221.309 93.931C221.305 94.0894 221.239 94.2397 221.126 94.3504C221.013 94.4612 220.861 94.5235 220.702 94.5243ZM221.067 48.0612V48.3442L133.266 48.9L133.798 91.4761L133.845 91.5034L220.709 93.9549L221.118 48.3749L221.067 48.0612Z" fill="#BDD0FB"/>
<path d="M138.307 54.6281C138.307 56.0977 139.217 57.2877 140.352 57.2877H215.023C216.145 57.2877 217.069 56.0977 217.069 54.6281C217.069 53.1586 216.159 51.9686 215.023 51.9686H140.352C139.217 51.9686 138.307 53.1586 138.307 54.6281Z" fill="#111813"/>
<path d="M140.311 60.0972H170.213C170.457 60.0895 170.7 60.1299 170.929 60.2162C171.157 60.3025 171.367 60.433 171.544 60.6002C171.722 60.7674 171.866 60.968 171.966 61.1906C172.066 61.4132 172.122 61.6534 172.129 61.8975V85.083C172.121 85.3316 172.063 85.576 171.959 85.8019C171.855 86.0278 171.707 86.2306 171.523 86.3983C171.34 86.566 171.124 86.6954 170.89 86.7787C170.656 86.862 170.407 86.8975 170.159 86.8833L140.87 86.1195C140.394 86.1212 139.936 85.9404 139.59 85.6143C139.243 85.2883 139.035 84.8419 139.008 84.367L138.395 61.9418C138.396 61.6938 138.447 61.4486 138.544 61.2207C138.642 60.9928 138.784 60.7867 138.963 60.6147C139.142 60.4428 139.353 60.3084 139.584 60.2195C139.816 60.1306 140.063 60.089 140.311 60.0972Z" fill="#111813"/>
<path d="M178.693 60.6973H213.785C214.549 60.6973 215.169 61.4099 215.169 62.2896C215.169 63.1727 214.549 63.8853 213.785 63.8853H178.693C177.929 63.8853 177.309 63.1727 177.309 62.2896C177.302 61.4099 177.929 60.6973 178.693 60.6973Z" fill="#111813"/>
<path d="M177.301 69.1225C177.301 70.0022 177.918 70.7148 178.682 70.7148H213.784C214.548 70.7148 215.165 70.0022 215.165 69.1225V68.1371C215.165 67.2438 214.524 66.5243 213.75 66.5448L178.665 67.5165C177.904 67.5506 177.301 68.2564 177.301 69.1225Z" fill="#111813"/>
<path d="M140.659 207.966L232.593 207.141C233.021 207.137 233.446 207.218 233.843 207.38C234.239 207.542 234.6 207.781 234.903 208.083C235.207 208.386 235.447 208.745 235.61 209.141C235.773 209.538 235.855 209.962 235.852 210.391L235.45 280.936C235.449 281.366 235.361 281.792 235.192 282.188C235.023 282.585 234.777 282.943 234.467 283.242C234.158 283.542 233.791 283.776 233.39 283.931C232.988 284.087 232.56 284.16 232.129 284.148C215.504 283.653 141.706 281.468 138.449 281.604C135.193 281.741 136.976 225.066 137.457 211.083C137.486 210.251 137.835 209.462 138.432 208.881C139.029 208.301 139.826 207.973 140.659 207.966Z" fill="#070707"/>
<path d="M232.225 281.597H232.195C218.975 281.202 152.409 279.211 140.24 279.054H139.988L139.943 278.805C138.791 272.299 138.811 245.752 140.001 211.175C140.009 210.999 140.085 210.834 140.212 210.712C140.339 210.591 140.508 210.523 140.683 210.524L232.614 209.698C232.704 209.697 232.794 209.714 232.878 209.748C232.961 209.782 233.037 209.833 233.101 209.896C233.165 209.96 233.215 210.035 233.249 210.119C233.283 210.202 233.3 210.291 233.299 210.38L232.893 280.926C232.891 281.102 232.82 281.271 232.695 281.397C232.57 281.522 232.402 281.594 232.225 281.597ZM140.506 278.447C153.34 278.641 219.088 280.592 232.225 280.984H232.246C232.259 280.978 232.271 280.969 232.278 280.956C232.286 280.944 232.29 280.93 232.29 280.915L232.686 210.38L232.617 210.005V210.312L140.683 211.13C140.667 211.13 140.651 211.137 140.639 211.148C140.627 211.16 140.619 211.175 140.619 211.192C139.452 245.305 139.405 271.573 140.509 278.447H140.506Z" fill="#BDD0FB"/>
<path d="M142.625 219.498C142.625 219.922 142.708 220.343 142.87 220.735C143.032 221.127 143.27 221.484 143.571 221.784C143.871 222.084 144.227 222.323 144.62 222.485C145.012 222.647 145.433 222.73 145.857 222.73H224.736C225.16 222.73 225.581 222.647 225.973 222.485C226.366 222.323 226.722 222.084 227.022 221.784C227.323 221.484 227.561 221.127 227.723 220.735C227.885 220.343 227.969 219.922 227.968 219.498C227.968 219.073 227.885 218.653 227.722 218.261C227.56 217.869 227.321 217.513 227.021 217.213C226.721 216.913 226.365 216.676 225.973 216.513C225.58 216.351 225.16 216.268 224.736 216.269H145.857C145.433 216.268 145.013 216.351 144.621 216.513C144.228 216.676 143.872 216.913 143.572 217.213C143.272 217.513 143.034 217.869 142.871 218.261C142.709 218.653 142.625 219.073 142.625 219.498Z" fill="#77BE1D"/>
<path d="M202.252 272.569C202.027 272.569 201.805 272.52 201.601 272.425C201.398 272.33 201.217 272.192 201.073 272.02L198.986 269.544C197.472 269.697 195.945 269.658 194.441 269.428L192.235 271.815C192.013 272.047 191.726 272.204 191.411 272.265C191.097 272.326 190.771 272.288 190.479 272.156L186.203 270.26C185.91 270.13 185.665 269.911 185.502 269.635C185.339 269.359 185.266 269.039 185.293 268.719L185.569 265.49C184.391 264.527 183.339 263.421 182.435 262.196L179.2 262.312C178.88 262.322 178.564 262.233 178.297 262.057C178.029 261.88 177.823 261.625 177.706 261.327L176.025 256.959C175.91 256.659 175.89 256.331 175.971 256.02C176.051 255.709 176.226 255.43 176.472 255.224L178.947 253.14C178.795 251.627 178.834 250.1 179.063 248.595L176.677 246.389C176.442 246.17 176.282 245.883 176.218 245.568C176.154 245.254 176.189 244.927 176.319 244.633L178.218 240.358C178.347 240.063 178.566 239.816 178.843 239.653C179.12 239.489 179.442 239.417 179.762 239.447L182.984 239.724C183.948 238.546 185.054 237.493 186.278 236.59L186.166 233.354C186.154 233.034 186.242 232.717 186.419 232.45C186.595 232.182 186.851 231.976 187.151 231.861L191.515 230.18C191.815 230.064 192.144 230.044 192.455 230.124C192.766 230.204 193.045 230.38 193.251 230.627L195.334 233.102C196.849 232.948 198.377 232.987 199.883 233.218L202.089 230.831C202.31 230.599 202.598 230.442 202.912 230.381C203.227 230.32 203.553 230.358 203.845 230.49L208.117 232.389C208.41 232.519 208.656 232.738 208.82 233.014C208.984 233.29 209.057 233.611 209.031 233.931L208.751 237.159C209.931 238.121 210.985 239.228 211.888 240.453L215.124 240.337C215.444 240.326 215.76 240.414 216.028 240.591C216.296 240.768 216.502 241.023 216.617 241.323L218.298 245.687C218.413 245.987 218.431 246.315 218.351 246.626C218.271 246.937 218.097 247.215 217.851 247.422L215.376 249.506C215.527 251.02 215.488 252.547 215.26 254.051L217.647 256.26C217.881 256.479 218.042 256.765 218.106 257.079C218.171 257.393 218.137 257.719 218.008 258.013L216.109 262.288C215.979 262.581 215.761 262.826 215.486 262.99C215.21 263.154 214.891 263.228 214.571 263.202L211.339 262.923C210.377 264.102 209.27 265.156 208.045 266.06L208.161 269.292C208.173 269.612 208.085 269.929 207.908 270.197C207.731 270.464 207.475 270.67 207.176 270.785L202.808 272.47C202.63 272.536 202.442 272.569 202.252 272.569ZM199.999 266.949L202.528 269.953L205.693 268.736L205.553 264.808L206.109 264.43C207.525 263.464 208.774 262.275 209.808 260.908L210.214 260.369L214.131 260.71L215.495 257.61L212.621 254.93L212.747 254.269C213.069 252.583 213.113 250.855 212.877 249.155L212.785 248.473L215.789 245.943L214.568 242.779L210.643 242.918L210.265 242.363C209.303 240.952 208.117 239.708 206.753 238.68L206.214 238.271L206.555 234.357L203.456 232.993L200.776 235.871L200.114 235.744C198.428 235.423 196.7 235.379 195 235.615L194.318 235.707L191.788 232.703L188.644 233.907L188.784 237.831L188.211 238.216C186.8 239.186 185.556 240.379 184.529 241.749L184.12 242.288L180.202 241.947L178.838 245.043L181.716 247.723L181.59 248.384C181.268 250.07 181.225 251.798 181.46 253.498L181.552 254.18L178.548 256.71L179.766 259.874L183.69 259.735L184.072 260.29C185.035 261.707 186.224 262.957 187.591 263.99L188.13 264.396L187.789 268.313L190.888 269.677L193.565 266.803L194.226 266.929C195.912 267.25 197.64 267.294 199.34 267.059L199.999 266.949ZM197.076 263.802C194.687 263.8 192.347 263.113 190.336 261.823C188.324 260.533 186.725 258.693 185.727 256.521C184.729 254.35 184.374 251.938 184.704 249.571C185.034 247.204 186.036 244.982 187.59 243.166C189.145 241.351 191.187 240.02 193.475 239.329C195.763 238.639 198.201 238.619 200.5 239.271C202.799 239.923 204.863 241.221 206.447 243.01C208.032 244.799 209.07 247.005 209.44 249.366C209.49 249.686 209.411 250.013 209.22 250.275C209.029 250.537 208.742 250.712 208.422 250.762C208.102 250.812 207.775 250.733 207.513 250.542C207.251 250.352 207.076 250.065 207.026 249.744C206.67 247.459 205.538 245.366 203.82 243.818C202.101 242.27 199.902 241.362 197.592 241.245C195.282 241.129 193.003 241.813 191.138 243.18C189.273 244.548 187.937 246.517 187.354 248.755C186.77 250.993 186.976 253.364 187.937 255.468C188.897 257.571 190.553 259.28 192.626 260.306C194.699 261.332 197.062 261.612 199.317 261.099C201.572 260.586 203.582 259.312 205.007 257.491C205.212 257.251 205.502 257.099 205.816 257.068C206.13 257.036 206.444 257.127 206.693 257.322C206.941 257.516 207.105 257.799 207.15 258.111C207.195 258.424 207.117 258.742 206.934 258.998C205.761 260.492 204.265 261.701 202.557 262.533C200.85 263.365 198.976 263.799 197.076 263.802Z" fill="#77BE1D"/>
<path d="M197.175 256.697C196.252 256.699 195.344 256.463 194.539 256.011C193.733 255.56 193.058 254.909 192.577 254.121C192.096 253.333 191.827 252.435 191.794 251.512C191.762 250.589 191.968 249.674 192.392 248.854C192.816 248.034 193.444 247.337 194.216 246.831C194.988 246.324 195.877 246.025 196.798 245.962C197.719 245.899 198.641 246.074 199.474 246.471C200.308 246.868 201.025 247.473 201.557 248.227C202.125 249.031 202.462 249.976 202.53 250.958C202.598 251.941 202.395 252.923 201.943 253.797C201.491 254.672 200.807 255.406 199.966 255.918C199.125 256.431 198.16 256.702 197.175 256.704V256.697ZM197.175 248.391C196.571 248.391 195.983 248.579 195.491 248.93C195.019 249.265 194.657 249.732 194.451 250.273C194.244 250.813 194.203 251.403 194.331 251.967C194.46 252.532 194.752 253.045 195.173 253.443C195.593 253.841 196.121 254.106 196.692 254.204C197.262 254.302 197.849 254.229 198.377 253.993C198.906 253.758 199.353 253.372 199.663 252.883C199.972 252.394 200.129 251.824 200.115 251.245C200.101 250.667 199.916 250.105 199.583 249.632C199.361 249.317 199.08 249.049 198.755 248.844C198.429 248.638 198.066 248.499 197.687 248.435C197.513 248.404 197.338 248.389 197.162 248.391H197.175Z" fill="#BDD0FB"/>
<path d="M162.604 251.385H162.478L160.241 251.105C160.02 251.079 159.813 250.984 159.649 250.833C159.485 250.683 159.372 250.484 159.327 250.266L159.037 248.902C158.448 248.647 157.888 248.329 157.367 247.955L156.054 248.405C155.845 248.479 155.618 248.486 155.404 248.425C155.191 248.364 155.002 248.238 154.864 248.064L153.48 246.291C153.342 246.114 153.264 245.9 153.254 245.677C153.245 245.453 153.306 245.233 153.428 245.046L154.182 243.887C153.947 243.289 153.775 242.669 153.67 242.035L152.426 241.408C152.225 241.311 152.06 241.153 151.953 240.956C151.847 240.76 151.805 240.535 151.833 240.314L152.109 238.084C152.136 237.863 152.231 237.655 152.382 237.491C152.532 237.326 152.73 237.213 152.948 237.166L154.311 236.88C154.566 236.289 154.884 235.728 155.259 235.206L154.796 233.907C154.722 233.697 154.715 233.47 154.776 233.256C154.837 233.042 154.963 232.853 155.137 232.713L156.91 231.329C157.086 231.192 157.302 231.113 157.526 231.105C157.75 231.096 157.971 231.158 158.158 231.281L159.313 232.032C159.912 231.797 160.534 231.625 161.168 231.52L161.775 230.276C161.875 230.076 162.034 229.911 162.23 229.805C162.427 229.699 162.651 229.656 162.873 229.682L165.103 229.958C165.324 229.986 165.531 230.082 165.695 230.233C165.858 230.384 165.971 230.583 166.017 230.801L166.307 232.165C166.895 232.42 167.455 232.737 167.977 233.109L169.29 232.662C169.499 232.588 169.725 232.581 169.938 232.642C170.151 232.703 170.339 232.83 170.477 233.003L171.864 234.783C172.001 234.959 172.08 235.173 172.089 235.395C172.098 235.618 172.037 235.838 171.915 236.024L171.162 237.187C171.397 237.784 171.568 238.405 171.673 239.038L172.918 239.649C173.122 239.74 173.293 239.893 173.406 240.086C173.519 240.28 173.569 240.503 173.549 240.726L173.272 242.959C173.245 243.181 173.15 243.388 173 243.552C172.849 243.717 172.652 243.83 172.434 243.877L171.07 244.163C170.815 244.753 170.497 245.315 170.122 245.837L170.572 247.146C170.645 247.356 170.652 247.583 170.591 247.796C170.53 248.009 170.404 248.198 170.231 248.336L168.434 249.728C168.258 249.865 168.044 249.945 167.821 249.954C167.598 249.964 167.377 249.904 167.19 249.782L166.03 249.029C165.432 249.264 164.81 249.435 164.176 249.54L163.569 250.785C163.48 250.965 163.342 251.116 163.172 251.222C163.001 251.328 162.804 251.384 162.604 251.385ZM161.008 249.346L162.16 249.489L162.969 247.839L163.47 247.784C164.254 247.7 165.02 247.49 165.737 247.16L166.194 246.949L167.735 247.948L168.649 247.235L168.056 245.496L168.373 245.104C168.867 244.49 169.258 243.799 169.529 243.058L169.706 242.584L171.503 242.203L171.646 241.05L169.996 240.242L169.941 239.737C169.857 238.954 169.645 238.189 169.314 237.473L169.102 237.013L170.105 235.475L169.389 234.558L167.653 235.155L167.258 234.834C166.643 234.34 165.952 233.95 165.212 233.678L164.735 233.505L164.356 231.704L163.2 231.564L162.396 233.225L161.895 233.279C161.111 233.361 160.346 233.572 159.631 233.903L159.17 234.115L157.629 233.116L156.715 233.828L157.309 235.567L156.991 235.959C156.497 236.574 156.107 237.265 155.836 238.005L155.658 238.479L153.861 238.861L153.718 240.014L155.368 240.822L155.423 241.326C155.508 242.11 155.72 242.875 156.05 243.59L156.262 244.047L155.259 245.588L155.975 246.505L157.711 245.909L158.106 246.226C158.721 246.721 159.412 247.113 160.152 247.385L160.63 247.559L161.008 249.346ZM162.638 246.863C162.373 246.863 162.109 246.847 161.847 246.816C160.812 246.685 159.826 246.301 158.976 245.699C158.125 245.096 157.436 244.293 156.969 243.361C156.502 242.429 156.272 241.396 156.3 240.354C156.327 239.312 156.611 238.292 157.126 237.386C157.641 236.479 158.371 235.714 159.253 235.157C160.134 234.6 161.139 234.269 162.178 234.192C163.218 234.116 164.261 234.297 165.214 234.719C166.167 235.142 167.001 235.793 167.643 236.614C167.921 236.971 168.16 237.356 168.356 237.763C168.414 237.872 168.449 237.992 168.46 238.115C168.47 238.238 168.456 238.361 168.418 238.479C168.38 238.596 168.318 238.704 168.237 238.797C168.156 238.89 168.056 238.966 167.945 239.02C167.834 239.073 167.713 239.104 167.59 239.11C167.467 239.116 167.344 239.097 167.228 239.054C167.112 239.011 167.006 238.946 166.916 238.861C166.827 238.776 166.755 238.674 166.706 238.561C166.566 238.271 166.395 237.997 166.197 237.743C165.585 236.959 164.73 236.4 163.766 236.152C162.802 235.905 161.784 235.984 160.87 236.376C159.955 236.768 159.196 237.451 158.711 238.32C158.226 239.189 158.041 240.193 158.187 241.178C158.332 242.162 158.8 243.07 159.515 243.761C160.231 244.452 161.155 244.887 162.144 244.998C163.133 245.109 164.131 244.889 164.982 244.374C165.833 243.858 166.489 243.076 166.849 242.148C166.95 241.942 167.124 241.781 167.338 241.698C167.551 241.614 167.789 241.613 168.003 241.696C168.217 241.778 168.392 241.938 168.494 242.144C168.596 242.349 168.617 242.586 168.554 242.806C168.09 243.999 167.278 245.025 166.222 245.749C165.167 246.472 163.918 246.861 162.638 246.863Z" fill="#77BE1D"/>
<path d="M131.457 455.806C136.23 456.024 140.861 455.888 143.946 455.727C141.137 453.726 134.659 449.372 129.237 447.64L125.517 447.418C125.517 447.418 124.256 449.334 123.812 453.723C124.423 454.51 126.227 455.564 131.457 455.806Z" fill="url(#paint19_linear_1839_1861)"/>
<path d="M143.988 455.755L143.947 455.728C140.861 455.888 136.234 456.024 131.457 455.806C126.227 455.564 124.423 454.493 123.81 453.723C123.786 453.924 123.765 454.125 123.748 454.336C123.729 454.565 123.755 454.796 123.826 455.015C123.896 455.233 124.009 455.436 124.158 455.611C124.307 455.786 124.489 455.93 124.694 456.034C124.898 456.138 125.122 456.201 125.351 456.219C129.262 456.515 138.965 457.183 143.643 456.941C143.779 456.934 143.909 456.885 144.015 456.8C144.121 456.716 144.198 456.6 144.236 456.47C144.274 456.34 144.27 456.201 144.226 456.073C144.181 455.945 144.098 455.834 143.988 455.755Z" fill="#77BE1D"/>
<path d="M97.284 454.527C96.9431 452.284 96.3737 449.041 95.9406 448.213C95.2587 446.91 92.9333 448.213 92.9333 448.213C92.9333 448.213 91.2967 448.973 90.5466 450.258C90.0658 451.067 88.7395 453.371 87.8427 454.936C87.7443 455.105 87.6947 455.297 87.6995 455.492L97.0249 455.833C97.2693 455.445 97.3616 454.98 97.284 454.527Z" fill="url(#paint20_linear_1839_1861)"/>
<path d="M87.6992 455.479C87.7101 455.746 87.8214 456 88.0109 456.19C88.2004 456.379 88.4543 456.49 88.7221 456.501L95.3641 456.682C95.6927 456.692 96.018 456.615 96.3076 456.459C96.5972 456.304 96.8409 456.075 97.0143 455.796L87.6992 455.479Z" fill="#77BE1D"/>
<path d="M97.9963 440.756C97.9178 441.025 96.7108 446.866 96.1857 449.43C96.1147 449.772 95.924 450.078 95.6478 450.292C95.3715 450.507 95.0279 450.616 94.6787 450.599C94.2832 450.579 93.8263 450.541 93.3455 450.48C92.9312 450.427 92.5492 450.229 92.2675 449.92C91.9859 449.612 91.823 449.213 91.8078 448.796C91.7225 446.552 91.6782 442.242 92.4897 440.572C93.6422 438.267 97.9963 440.756 97.9963 440.756Z" fill="url(#paint21_linear_1839_1861)"/>
<path d="M124.793 442.43C125.308 442.43 124.585 445.096 125.366 447.735C125.429 448.025 125.584 448.286 125.809 448.479C126.033 448.672 126.315 448.787 126.61 448.806C127.013 448.806 127.487 448.806 127.974 448.762C128.329 448.735 128.663 448.584 128.916 448.334C129.169 448.084 129.324 447.752 129.355 447.398L129.989 440.558L124.793 442.43Z" fill="url(#paint22_linear_1839_1861)"/>
<path d="M139.238 369.692C139.007 370.814 130.868 418.29 130.373 442.856C130.37 443.055 130.296 443.247 130.164 443.397C130.032 443.546 129.851 443.643 129.654 443.671C127.997 443.915 126.313 443.905 124.659 443.64C124.529 443.617 124.411 443.552 124.323 443.453C124.235 443.355 124.183 443.23 124.175 443.098C123.888 438.519 121.6 399.796 124.403 381.592C124.403 381.592 101.259 430.298 97.75 443.729C97.71 443.887 97.6163 444.026 97.4851 444.122C97.3538 444.219 97.1932 444.266 97.0306 444.257C95.436 444.197 93.8573 443.917 92.339 443.425C92.0556 443.323 91.8201 443.119 91.6778 442.854C91.5355 442.588 91.4966 442.279 91.5684 441.987C93.5255 433.95 107.253 378.567 116.588 366.371L139.238 369.692Z" fill="#272039"/>
<path d="M124.406 381.885C124.367 381.886 124.328 381.878 124.292 381.864C124.255 381.849 124.222 381.827 124.195 381.8C124.166 381.772 124.144 381.738 124.129 381.701C124.113 381.664 124.105 381.625 124.105 381.585C124.105 381.545 124.113 381.506 124.129 381.469C124.144 381.432 124.166 381.398 124.195 381.37L127.294 378.199C127.351 378.143 127.428 378.111 127.509 378.111C127.589 378.111 127.666 378.143 127.724 378.199C127.752 378.227 127.774 378.261 127.79 378.298C127.805 378.335 127.813 378.374 127.813 378.414C127.813 378.454 127.805 378.493 127.79 378.53C127.774 378.567 127.752 378.601 127.724 378.629L124.628 381.796C124.598 381.825 124.564 381.848 124.526 381.863C124.488 381.878 124.447 381.886 124.406 381.885Z" fill="#77BE1D"/>
<path d="M167.893 310.225C162.857 311.604 157.545 311.617 152.502 310.262C145.73 308.486 132.385 305.55 123.285 307.194L122.531 330.979L153.61 334.529L153.89 328.214C153.89 328.214 172.782 325.486 183.001 313.065C180.86 310.67 178.951 308.077 177.3 305.322C174.561 307.625 171.35 309.298 167.893 310.225Z" fill="#77BE1D"/>
<path d="M188.49 286.783L186.103 285.733C186.103 285.733 186.222 297.701 177.303 305.322C178.956 308.075 180.867 310.666 183.01 313.058C188.04 306.934 190.969 298.455 188.49 286.783Z" fill="url(#paint23_linear_1839_1861)"/>
<path d="M138.169 293.968C138.169 293.968 136.365 304.732 136.123 308.118C136.123 308.118 144.838 310.521 147.112 309.232L146.826 296.211L138.169 293.968Z" fill="url(#paint24_linear_1839_1861)"/>
<path d="M88.6934 326.233L165.482 325.718C165.899 325.715 166.313 325.796 166.699 325.954C167.085 326.113 167.436 326.347 167.731 326.642C168.026 326.937 168.26 327.288 168.418 327.675C168.576 328.061 168.656 328.475 168.653 328.892L168.329 371.315C168.326 371.735 168.239 372.15 168.073 372.536C167.908 372.922 167.666 373.27 167.364 373.562C167.062 373.853 166.704 374.081 166.312 374.232C165.921 374.383 165.503 374.455 165.083 374.442L89.1264 372.161C88.3121 372.14 87.5377 371.804 86.9655 371.224C86.3934 370.644 86.068 369.866 86.0577 369.051L85.5804 329.424C85.5745 329.01 85.6505 328.599 85.8039 328.214C85.9573 327.83 86.1851 327.479 86.4743 327.182C86.7635 326.886 87.1084 326.649 87.4892 326.486C87.87 326.324 88.2792 326.237 88.6934 326.233Z" fill="#165227"/>
<path d="M165.184 371.881L89.207 369.61C89.0529 369.606 88.9064 369.542 88.7984 369.432C88.6903 369.322 88.629 369.175 88.6273 369.02L88.1193 329.407C88.1175 329.328 88.1315 329.25 88.1605 329.176C88.1895 329.103 88.2329 329.036 88.2882 328.979C88.3434 328.922 88.4095 328.877 88.4823 328.847C88.5552 328.816 88.6335 328.8 88.7126 328.8L165.501 328.286C165.58 328.285 165.658 328.3 165.732 328.33C165.805 328.36 165.871 328.404 165.927 328.459C165.984 328.515 166.029 328.581 166.059 328.654C166.089 328.728 166.103 328.806 166.101 328.886L165.777 371.301C165.773 371.456 165.708 371.603 165.598 371.711C165.487 371.819 165.339 371.88 165.184 371.881ZM89.2377 368.986L165.191 371.271L165.491 328.869L88.716 329.397L89.2377 368.986Z" fill="#77BE1D"/>
<path d="M93.123 333.642C93.123 335.006 93.9175 336.117 94.9029 336.117H160.214C161.196 336.117 161.991 335.009 161.991 333.642C161.991 332.278 161.196 331.163 160.214 331.163H94.9029C93.9175 331.163 93.123 332.271 93.123 333.642Z" fill="#77BE1D"/>
<path d="M93.4463 339.783H120.942C121.173 339.782 121.403 339.828 121.617 339.916C121.831 340.004 122.025 340.134 122.189 340.298C122.353 340.462 122.483 340.656 122.571 340.87C122.659 341.084 122.705 341.314 122.704 341.545V364.247C122.704 364.482 122.657 364.716 122.566 364.933C122.474 365.15 122.34 365.346 122.171 365.511C122.002 365.675 121.802 365.804 121.583 365.889C121.364 365.975 121.129 366.016 120.894 366.01L93.9577 365.263C93.5102 365.248 93.0849 365.064 92.7683 364.748C92.4516 364.431 92.2674 364.006 92.2529 363.558L91.6903 341.6C91.683 341.365 91.723 341.13 91.8079 340.91C91.8928 340.691 92.0208 340.49 92.1845 340.321C92.3482 340.151 92.5442 340.016 92.7609 339.924C92.9776 339.832 93.2107 339.784 93.4463 339.783Z" fill="#77BE1D"/>
<path d="M128.441 340.342H159.128C159.81 340.342 160.339 341.024 160.339 341.825C160.339 342.647 159.796 343.312 159.128 343.312H128.441C127.759 343.312 127.234 342.63 127.234 341.825C127.234 341.007 127.773 340.342 128.441 340.342Z" fill="#77BE1D"/>
<path d="M127.234 348.188C127.234 349.006 127.773 349.671 128.441 349.671H159.128C159.81 349.671 160.335 349.006 160.335 348.188V347.27C160.335 346.438 159.776 345.767 159.101 345.787L128.414 346.704C127.756 346.725 127.234 347.383 127.234 348.188Z" fill="#77BE1D"/>
<path d="M130.93 320.021L123.303 307.187C123.303 307.187 107.339 320.852 102.518 339.848L110.973 345.163C114.444 338.964 120.493 330.71 130.93 320.021Z" fill="#77BE1D"/>
<path d="M114.224 373.361C113.835 373.356 113.455 373.24 113.13 373.027C112.804 372.813 112.546 372.512 112.386 372.157C111.52 370.279 109.822 366.702 108.932 365.539C108.932 365.539 109.911 365.062 111.66 365.464C113.409 365.866 114.861 365.161 114.909 364.199L106.804 360.725C106.511 359.9 105.335 355.269 110.978 345.17L102.522 339.854C100.715 346.967 100.476 354.829 103.204 363.002C103.204 363.002 104.8 372.287 108.028 374.166C111.257 376.044 116.167 373.402 116.167 373.402L114.224 373.361Z" fill="url(#paint25_linear_1839_1861)"/>
<path d="M147.979 284.045C147.979 284.045 150.874 290.698 151.068 294.189C151.263 297.681 152.016 299.948 147.979 300.667C143.942 301.387 140.539 299.361 138.695 295.894C138.695 295.894 135.81 290.534 136.458 288.338C137.106 286.142 147.979 284.045 147.979 284.045Z" fill="url(#paint26_linear_1839_1861)"/>
<path d="M140.058 293.364H140.569C140.569 293.364 138.465 289.051 140.313 288.294C142.162 287.537 149.482 286.04 151.061 283.445C152.585 280.939 151.224 277.707 149.196 276.8C149.133 276.776 149.063 276.775 149 276.799C148.937 276.823 148.885 276.87 148.855 276.93L148.688 277.247C148.662 277.295 148.622 277.334 148.574 277.36C148.526 277.386 148.471 277.397 148.416 277.391C148.362 277.386 148.31 277.364 148.268 277.329C148.226 277.294 148.195 277.248 148.18 277.196C148.165 277.145 148.137 277.1 148.098 277.065C148.058 277.03 148.01 277.008 147.958 277C147.906 276.992 147.853 276.999 147.806 277.021C147.758 277.042 147.717 277.077 147.689 277.12C147.204 277.894 145.895 279.166 142.387 279.807C137.402 280.728 134.108 282.743 134.03 286.187C134.028 286.236 134.014 286.284 133.988 286.325C133.962 286.367 133.926 286.401 133.882 286.424C133.839 286.447 133.79 286.458 133.741 286.456C133.692 286.454 133.645 286.438 133.603 286.412C133.235 286.187 132.649 286.071 131.861 286.753C130.497 287.905 131.053 290.889 134.053 293.344C134.087 293.369 134.115 293.402 134.134 293.44C134.153 293.478 134.163 293.519 134.163 293.562C134.163 293.604 134.153 293.646 134.134 293.684C134.115 293.722 134.087 293.755 134.053 293.78C133.508 294.121 132.69 294.977 134.797 296.099C136.948 297.248 138.206 297.121 138.697 297.002C138.76 296.986 138.815 296.948 138.852 296.896C138.89 296.844 138.909 296.78 138.905 296.716L138.718 293.664C138.715 293.627 138.721 293.59 138.733 293.554C138.746 293.519 138.766 293.487 138.791 293.46C138.817 293.433 138.848 293.411 138.882 293.396C138.916 293.382 138.953 293.374 138.991 293.374L140.058 293.364Z" fill="url(#paint27_linear_1839_1861)"/>
<path d="M140.182 294.001C140.182 294.001 139.077 289.753 137.171 290.933C135.265 292.113 138.16 295.706 139.691 295.856L140.182 294.001Z" fill="url(#paint28_linear_1839_1861)"/>
<path d="M179.484 276.803V281.611C179.484 281.611 183.399 286.589 188.493 286.783C188.493 286.783 192.98 286.49 192.83 283.166L185.669 281.802C185.669 281.802 182.655 280.915 181.813 280.438C181.796 280.448 181.176 276.957 179.484 276.803Z" fill="url(#paint29_linear_1839_1861)"/>
<path d="M620.213 267.611C620.213 267.611 600.897 292.341 622.941 317.491L631.226 316.72C631.226 316.72 615.276 291.11 622.382 270.69L634.117 271.546L640.596 267.314L620.213 267.611Z" fill="url(#paint30_linear_1839_1861)"/>
<path d="M563.271 212.014L654.99 207.281C656.787 207.186 658.304 208.273 658.355 209.692L660.428 265.228C660.479 266.656 659.034 267.863 657.223 267.904C640.618 268.245 566.898 269.81 563.652 270.063C560.406 270.315 560.202 225.635 560.192 214.612C560.171 213.248 561.532 212.106 563.271 212.014Z" fill="#5E931B"/>
<path d="M565.103 268.051L565.041 267.816C563.677 262.739 562.75 241.834 562.723 214.561C562.733 214.397 562.806 214.244 562.926 214.132C563.045 214.021 563.203 213.959 563.367 213.961L655.086 209.225C655.251 209.214 655.414 209.26 655.55 209.354C655.622 209.404 655.682 209.469 655.724 209.545C655.767 209.622 655.791 209.707 655.795 209.794L657.865 265.33C657.861 265.498 657.791 265.657 657.67 265.774C657.55 265.89 657.388 265.955 657.221 265.954H657.2C643.988 266.234 577.452 267.638 565.351 268.041L565.103 268.051ZM655.117 209.835H655.1L563.381 214.567C563.368 214.567 563.354 214.569 563.342 214.574C563.33 214.579 563.319 214.586 563.309 214.595C563.343 241.384 564.216 262.009 565.553 267.424C578.277 267.008 644.036 265.62 657.166 265.344C657.177 265.344 657.188 265.342 657.198 265.338C657.208 265.334 657.217 265.328 657.224 265.32L655.144 209.818C655.144 209.818 655.151 209.835 655.127 209.835H655.117Z" fill="#BDD0FB"/>
<path d="M623.205 218.437C623.267 219.842 623.785 220.96 624.365 220.936L649.855 219.801C650.431 219.774 650.847 218.615 650.786 217.21C650.724 215.805 650.206 214.69 649.63 214.714L624.136 215.836C623.56 215.877 623.144 217.036 623.205 218.437Z" fill="#BDD0FB"/>
<path d="M623.321 225.355C623.351 226.058 623.842 226.607 624.418 226.579L649.912 225.444C650.489 225.42 650.935 224.83 650.901 224.128C650.867 223.426 650.376 222.877 649.8 222.9L624.306 224.036C623.73 224.063 623.283 224.653 623.321 225.355Z" fill="#BDD0FB"/>
<path d="M623.321 230.651C623.351 231.353 623.842 231.902 624.418 231.875L649.912 230.739C650.489 230.715 650.935 230.125 650.901 229.423C650.867 228.721 650.376 228.172 649.8 228.196L624.306 229.331C623.73 229.358 623.283 229.948 623.321 230.651Z" fill="#BDD0FB"/>
<path d="M588.648 258.115H587.82C587.577 258.114 587.344 258.024 587.163 257.863C586.982 257.701 586.867 257.48 586.838 257.239L585.044 241.749C585.029 241.619 585.039 241.488 585.075 241.362C585.11 241.236 585.171 241.119 585.252 241.017C585.334 240.914 585.435 240.829 585.55 240.767C585.664 240.704 585.79 240.665 585.92 240.651C586.882 240.515 587.804 240.179 588.628 239.666C589.037 239.396 589.507 238.148 589.923 237.051C590.564 235.346 591.366 233.235 592.832 231.558C595.219 228.83 594.816 224.759 594.762 224.302C594.646 223.299 595.42 221.827 596.63 221.356C597.37 221.07 598.85 220.92 600.466 223.156C602.481 225.945 601.601 229.703 601.018 232.192C600.846 232.833 600.721 233.486 600.643 234.146V234.19C601.148 234.507 603.436 234.152 604.813 233.941C605.543 233.828 606.293 233.709 607.026 233.627C609.587 233.327 612.597 233.44 613.163 236.958C613.254 237.541 613.208 238.136 613.031 238.698C612.853 239.26 612.549 239.773 612.141 240.198C613.273 241.166 613.845 242.223 613.886 243.352C613.883 244.247 613.568 245.114 612.996 245.803C613.479 246.237 613.839 246.79 614.039 247.407C614.239 248.025 614.272 248.684 614.135 249.318C613.949 250.24 613.471 251.077 612.771 251.705C613.147 252.122 613.35 252.668 613.337 253.229C613.29 254.934 611.217 256.666 608.41 257.321C605.014 258.057 592.092 258.115 588.648 258.115ZM587.114 242.431L588.706 256.151C592.167 256.151 604.83 256.087 607.971 255.367C610.204 254.852 611.353 253.662 611.38 253.158C611.38 252.96 611.015 252.718 610.456 252.558C610.233 252.495 610.04 252.356 609.909 252.165C609.778 251.974 609.719 251.743 609.741 251.512C609.763 251.282 609.865 251.067 610.029 250.904C610.193 250.741 610.41 250.641 610.64 250.621C611.322 250.56 612.042 249.786 612.212 248.916C612.335 248.299 612.212 247.429 611.029 246.795C610.879 246.717 610.753 246.601 610.661 246.459C610.568 246.318 610.514 246.155 610.503 245.986C610.492 245.818 610.524 245.649 610.596 245.496C610.669 245.344 610.779 245.212 610.916 245.114C610.916 245.114 611.939 244.327 611.939 243.379C611.939 242.431 610.899 241.616 610.054 241.074C609.908 240.983 609.788 240.855 609.706 240.703C609.624 240.552 609.584 240.381 609.588 240.209C609.592 240.037 609.642 239.868 609.731 239.721C609.821 239.574 609.947 239.452 610.098 239.369C610.146 239.342 611.462 238.551 611.237 237.245C611.08 236.259 610.896 235.145 607.285 235.564C606.603 235.642 605.857 235.758 605.147 235.867C602.505 236.277 600.418 236.6 599.32 235.612C599.101 235.412 598.931 235.164 598.824 234.888C598.716 234.612 598.674 234.315 598.7 234.019C598.776 233.24 598.918 232.467 599.123 231.711C599.654 229.447 600.381 226.344 598.891 224.285C598.314 223.487 597.745 223.054 597.404 223.163C597.235 223.255 597.088 223.384 596.977 223.542C596.865 223.699 596.791 223.88 596.76 224.07C596.821 224.592 597.292 229.474 594.352 232.836C593.118 234.241 592.423 236.089 591.805 237.719C591.188 239.349 590.694 240.665 589.76 241.289C588.948 241.816 588.054 242.202 587.114 242.431Z" fill="#BDD0FB"/>
<path d="M630.799 388.684C630.799 388.684 646.449 422.78 654.666 436.917C654.666 436.917 656.296 445.809 654.666 448.601L653.275 449.222L659.753 449.028C659.753 449.028 660.33 437.07 659.88 436.412C659.72 436.21 659.514 436.048 659.28 435.94C659.047 435.831 658.79 435.779 658.533 435.788C658.533 435.788 655.751 413.755 647.697 409.053L639.889 382.168L630.799 388.684Z" fill="url(#paint31_linear_1839_1861)"/>
<path d="M650.502 450.896C650.502 451.049 655.565 450.981 658.324 450.93C658.817 450.921 659.293 450.745 659.674 450.431C660.056 450.117 660.32 449.684 660.424 449.201L662.507 438.263C662.601 437.763 662.498 437.246 662.22 436.821C661.942 436.395 661.51 436.093 661.014 435.979L659.851 435.713C659.851 435.713 658.194 437.987 658.716 440.145C659.237 442.304 659.701 447.831 658.375 448.479C657.048 449.126 653.26 449.239 653.26 449.239C653.26 449.239 650.587 449.488 650.502 450.896Z" fill="#77BE1D"/>
<path d="M615.967 451.101C615.857 451.163 615.771 451.261 615.722 451.378C615.673 451.495 615.664 451.626 615.698 451.748C615.731 451.871 615.804 451.979 615.905 452.055C616.006 452.132 616.13 452.173 616.257 452.171C620.87 452.123 631.205 451.977 632.122 451.595C633.309 451.104 631.692 446.842 629.988 445.4L620.587 448.468L615.967 451.101Z" fill="#77BE1D"/>
<path d="M613.051 386.508C613.051 386.508 623.16 435.416 626.007 444.963L619.239 449.212C619.239 449.212 622.649 448.632 625.145 448.451C627.641 448.271 629.973 445.383 629.973 445.383L629.165 444.09C629.165 444.09 626.628 395.435 627.245 389.908L613.051 386.508Z" fill="url(#paint32_linear_1839_1861)"/>
<path d="M587.947 272.398C587.947 272.398 586.55 297.848 609.721 310.852L604.143 323.58C604.143 323.58 583.164 310.893 583.941 276.289C583.96 275.294 583.609 274.328 582.956 273.578L578.499 268.405C577.662 267.436 577.071 266.279 576.774 265.033C576.477 263.787 576.484 262.488 576.795 261.245L577.381 258.899C577.426 258.716 577.514 258.546 577.636 258.403C577.759 258.259 577.913 258.146 578.087 258.073C578.26 257.999 578.449 257.967 578.637 257.98C578.825 257.992 579.008 258.047 579.171 258.142L579.638 258.412C581.124 259.278 582.299 260.59 582.997 262.162L585.186 267.055C585.584 267.947 586.251 268.693 587.093 269.188C587.935 269.684 588.911 269.905 589.884 269.82L591.248 269.705L587.947 272.398Z" fill="url(#paint33_linear_1839_1861)"/>
<path d="M608.912 308.943C612.789 310.02 625.923 313.474 634.12 313.331L629.077 341.736L629.476 346.37L613.065 346.295C613.065 346.295 608.445 335.568 604.8 330.219C603.747 328.674 604.531 326.83 605.141 325.06L604.323 324.511C603.917 324.241 603.61 323.846 603.45 323.385C603.29 322.925 603.285 322.424 603.436 321.961L607.433 309.734C607.531 309.438 607.74 309.191 608.015 309.044C608.29 308.896 608.611 308.86 608.912 308.943Z" fill="#77BE1D"/>
<path d="M611.759 343.871L612.1 346.677C612.1 346.677 607.463 360.568 614.419 393.007C614.419 393.007 629.486 397.276 641.87 387.061C641.87 387.061 638.375 356.446 637.437 355.01C632.687 347.908 629.52 346.363 629.52 346.363L629.377 343.295C629.377 343.295 616.1 345.699 611.759 343.871Z" fill="#272039"/>
<path d="M618.184 311.234C618.13 311.155 621.594 300.715 621.594 300.715L626.586 301.169L628.536 313.014C628.536 313.014 620.731 314.592 618.184 311.234Z" fill="url(#paint34_linear_1839_1861)"/>
<path d="M625.405 284.247C625.064 284.455 614.743 288.724 616.963 299.45C617.026 299.763 617.163 300.057 617.362 300.307C617.561 300.556 617.817 300.755 618.109 300.886C620.833 302.095 623.821 302.589 626.789 302.321C632.204 301.772 635.75 292.328 635.6 289.579C635.45 286.831 628.706 282.194 625.405 284.247Z" fill="url(#paint35_linear_1839_1861)"/>
<path d="M628.552 280.077C628.28 280.114 622.582 282.099 625.405 286.214C628.229 290.329 629.292 292.774 627.956 294.588C626.739 296.238 624.042 295.297 624.277 298.734C624.305 299.071 624.244 299.41 624.099 299.715C623.955 300.021 623.733 300.284 623.455 300.476C620.911 302.198 614.713 307.493 620.857 315.046C621.104 315.342 621.257 315.706 621.295 316.09C621.333 316.474 621.256 316.861 621.072 317.201C619.271 320.426 615.494 329.885 629.18 335.129C642.702 340.311 647.592 331.47 648.956 327.938C649.101 327.567 649.36 327.253 649.695 327.038C650.03 326.824 650.424 326.721 650.821 326.744C652.307 326.816 654.415 326.567 654.316 324.583C654.258 323.376 653.504 322.295 652.611 321.429C652.405 321.226 652.248 320.979 652.152 320.706C652.057 320.433 652.026 320.142 652.061 319.855C652.096 319.569 652.197 319.294 652.356 319.052C652.514 318.81 652.726 318.609 652.976 318.462C653.419 318.224 653.809 317.898 654.122 317.504C654.435 317.11 654.665 316.657 654.796 316.171C655.618 313.133 653.982 304.053 645.277 302.512C644.892 302.435 644.537 302.25 644.255 301.977C643.972 301.704 643.774 301.356 643.684 300.974C643.684 300.974 643.684 300.954 643.684 300.944C643.614 300.602 643.641 300.248 643.762 299.921C643.882 299.594 644.092 299.307 644.366 299.092C645.754 298.069 647.537 296.023 646.088 292.726C644.806 289.808 642.338 288.822 640.513 288.509C640.26 288.468 640.017 288.376 639.8 288.239C639.583 288.102 639.396 287.922 639.251 287.71C639.105 287.498 639.004 287.259 638.954 287.007C638.904 286.755 638.906 286.496 638.959 286.245C639.586 283.346 639.051 278.703 628.552 280.077Z" fill="#272039"/>
<defs>
<linearGradient id="paint0_linear_1839_1861" x1="1245.91" y1="-320.838" x2="1106.9" y2="-241.071" gradientUnits="userSpaceOnUse">
<stop stop-color="#FF928E"/>
<stop offset="1" stop-color="#FEB3B1"/>
</linearGradient>
<linearGradient id="paint1_linear_1839_1861" x1="1214.06" y1="-376.314" x2="1075.06" y2="-296.551" gradientUnits="userSpaceOnUse">
<stop stop-color="#FF928E"/>
<stop offset="1" stop-color="#FEB3B1"/>
</linearGradient>
<linearGradient id="paint2_linear_1839_1861" x1="484.547" y1="98.1013" x2="589.7" y2="295.578" gradientUnits="userSpaceOnUse">
<stop stop-color="#FF928E"/>
<stop offset="1" stop-color="#FEB3B1"/>
</linearGradient>
<linearGradient id="paint3_linear_1839_1861" x1="615.901" y1="71.5642" x2="412.114" y2="95.7322" gradientUnits="userSpaceOnUse">
<stop stop-color="#FF928E"/>
<stop offset="1" stop-color="#FEB3B1"/>
</linearGradient>
<linearGradient id="paint4_linear_1839_1861" x1="618.585" y1="94.1964" x2="414.798" y2="118.364" gradientUnits="userSpaceOnUse">
<stop stop-color="#FF928E"/>
<stop offset="1" stop-color="#FEB3B1"/>
</linearGradient>
<linearGradient id="paint5_linear_1839_1861" x1="150.925" y1="-142.054" x2="223.985" y2="-100.878" gradientUnits="userSpaceOnUse">
<stop stop-color="#FF928E"/>
<stop offset="1" stop-color="#FEB3B1"/>
</linearGradient>
<linearGradient id="paint6_linear_1839_1861" x1="149.382" y1="-139.32" x2="222.439" y2="-98.1446" gradientUnits="userSpaceOnUse">
<stop stop-color="#FF928E"/>
<stop offset="1" stop-color="#FEB3B1"/>
</linearGradient>
<linearGradient id="paint7_linear_1839_1861" x1="62.9683" y1="205.578" x2="69.0032" y2="215.22" gradientUnits="userSpaceOnUse">
<stop stop-color="#0A0442"/>
<stop offset="1" stop-color="#1A0F91"/>
</linearGradient>
<linearGradient id="paint8_linear_1839_1861" x1="27.6732" y1="178.514" x2="119.495" y2="241.943" gradientUnits="userSpaceOnUse">
<stop stop-color="#A22B25"/>
<stop offset="1" stop-color="#C0423C"/>
</linearGradient>
<linearGradient id="paint9_linear_1839_1861" x1="88.2554" y1="205.529" x2="92.5685" y2="216.774" gradientUnits="userSpaceOnUse">
<stop stop-color="#0A0442"/>
<stop offset="1" stop-color="#1A0F91"/>
</linearGradient>
<linearGradient id="paint10_linear_1839_1861" x1="35.8449" y1="166.686" x2="127.666" y2="230.115" gradientUnits="userSpaceOnUse">
<stop stop-color="#A22B25"/>
<stop offset="1" stop-color="#C0423C"/>
</linearGradient>
<linearGradient id="paint11_linear_1839_1861" x1="90.0962" y1="73.2823" x2="171.269" y2="173.754" gradientUnits="userSpaceOnUse">
<stop stop-color="#E1473D"/>
<stop offset="1" stop-color="#E9605A"/>
</linearGradient>
<linearGradient id="paint12_linear_1839_1861" x1="73.1396" y1="51.7163" x2="173.833" y2="89.8633" gradientUnits="userSpaceOnUse">
<stop stop-color="#A22B25"/>
<stop offset="1" stop-color="#C0423C"/>
</linearGradient>
<linearGradient id="paint13_linear_1839_1861" x1="85.3199" y1="100.975" x2="144.637" y2="202.207" gradientUnits="userSpaceOnUse">
<stop stop-color="#FE7062"/>
<stop offset="1" stop-color="#FF928E"/>
</linearGradient>
<linearGradient id="paint14_linear_1839_1861" x1="99.7254" y1="103.26" x2="212.837" y2="107.031" gradientUnits="userSpaceOnUse">
<stop stop-color="#A22B25"/>
<stop offset="1" stop-color="#C0423C"/>
</linearGradient>
<linearGradient id="paint15_linear_1839_1861" x1="99.977" y1="95.6699" x2="213.088" y2="99.441" gradientUnits="userSpaceOnUse">
<stop stop-color="#A22B25"/>
<stop offset="1" stop-color="#C0423C"/>
</linearGradient>
<linearGradient id="paint16_linear_1839_1861" x1="105.705" y1="61.7815" x2="80.9306" y2="94.0606" gradientUnits="userSpaceOnUse">
<stop stop-color="#A22B25"/>
<stop offset="1" stop-color="#C0423C"/>
</linearGradient>
<linearGradient id="paint17_linear_1839_1861" x1="92.8361" y1="49.6842" x2="101.019" y2="68.3247" gradientUnits="userSpaceOnUse">
<stop stop-color="#A22B25"/>
<stop offset="1" stop-color="#C0423C"/>
</linearGradient>
<linearGradient id="paint18_linear_1839_1861" x1="87.8511" y1="51.8732" x2="96.0342" y2="70.5136" gradientUnits="userSpaceOnUse">
<stop stop-color="#A22B25"/>
<stop offset="1" stop-color="#C0423C"/>
</linearGradient>
<linearGradient id="paint19_linear_1839_1861" x1="123.744" y1="451.67" x2="144.26" y2="451.67" gradientUnits="userSpaceOnUse">
<stop stop-color="#09005D"/>
<stop offset="1" stop-color="#1A0F91"/>
</linearGradient>
<linearGradient id="paint20_linear_1839_1861" x1="87.6995" y1="451.721" x2="97.3079" y2="451.721" gradientUnits="userSpaceOnUse">
<stop stop-color="#09005D"/>
<stop offset="1" stop-color="#1A0F91"/>
</linearGradient>
<linearGradient id="paint21_linear_1839_1861" x1="91.7634" y1="445.096" x2="97.9963" y2="445.096" gradientUnits="userSpaceOnUse">
<stop stop-color="#FF928E"/>
<stop offset="1" stop-color="#FEB3B1"/>
</linearGradient>
<linearGradient id="paint22_linear_1839_1861" x1="124.79" y1="444.687" x2="129.982" y2="444.687" gradientUnits="userSpaceOnUse">
<stop stop-color="#FF928E"/>
<stop offset="1" stop-color="#FEB3B1"/>
</linearGradient>
<linearGradient id="paint23_linear_1839_1861" x1="197.481" y1="279.286" x2="171.557" y2="319.993" gradientUnits="userSpaceOnUse">
<stop stop-color="#FF928E"/>
<stop offset="1" stop-color="#FEB3B1"/>
</linearGradient>
<linearGradient id="paint24_linear_1839_1861" x1="147.436" y1="289.746" x2="138.401" y2="312.079" gradientUnits="userSpaceOnUse">
<stop stop-color="#FF928E"/>
<stop offset="1" stop-color="#FEB3B1"/>
</linearGradient>
<linearGradient id="paint25_linear_1839_1861" x1="142.773" y1="320.743" x2="128.793" y2="335.746" gradientUnits="userSpaceOnUse">
<stop stop-color="#FF928E"/>
<stop offset="1" stop-color="#FEB3B1"/>
</linearGradient>
<linearGradient id="paint26_linear_1839_1861" x1="141.579" y1="285.307" x2="146.523" y2="299.286" gradientUnits="userSpaceOnUse">
<stop stop-color="#FF928E"/>
<stop offset="1" stop-color="#FEB3B1"/>
</linearGradient>
<linearGradient id="paint27_linear_1839_1861" x1="136.935" y1="279.899" x2="151.927" y2="299.205" gradientUnits="userSpaceOnUse">
<stop stop-color="#0A0442"/>
<stop offset="1" stop-color="#1A0F91"/>
</linearGradient>
<linearGradient id="paint28_linear_1839_1861" x1="136.241" y1="287.196" x2="141.184" y2="301.175" gradientUnits="userSpaceOnUse">
<stop stop-color="#FF928E"/>
<stop offset="1" stop-color="#FEB3B1"/>
</linearGradient>
<linearGradient id="paint29_linear_1839_1861" x1="189.976" y1="274.505" x2="164.052" y2="315.213" gradientUnits="userSpaceOnUse">
<stop stop-color="#FF928E"/>
<stop offset="1" stop-color="#FEB3B1"/>
</linearGradient>
<linearGradient id="paint30_linear_1839_1861" x1="631.946" y1="301.247" x2="625.126" y2="276.926" gradientUnits="userSpaceOnUse">
<stop stop-color="#FF928E"/>
<stop offset="1" stop-color="#FEB3B1"/>
</linearGradient>
<linearGradient id="paint31_linear_1839_1861" x1="630.799" y1="415.688" x2="660.053" y2="415.688" gradientUnits="userSpaceOnUse">
<stop stop-color="#FF928E"/>
<stop offset="1" stop-color="#FEB3B1"/>
</linearGradient>
<linearGradient id="paint32_linear_1839_1861" x1="613.047" y1="417.863" x2="629.986" y2="417.863" gradientUnits="userSpaceOnUse">
<stop stop-color="#FF928E"/>
<stop offset="1" stop-color="#FEB3B1"/>
</linearGradient>
<linearGradient id="paint33_linear_1839_1861" x1="620.622" y1="215.488" x2="609.711" y2="243.447" gradientUnits="userSpaceOnUse">
<stop stop-color="#FF928E"/>
<stop offset="1" stop-color="#FEB3B1"/>
</linearGradient>
<linearGradient id="paint34_linear_1839_1861" x1="618.184" y1="307.05" x2="628.553" y2="307.05" gradientUnits="userSpaceOnUse">
<stop stop-color="#FF928E"/>
<stop offset="1" stop-color="#FEB3B1"/>
</linearGradient>
<linearGradient id="paint35_linear_1839_1861" x1="638.71" y1="267.751" x2="632.797" y2="279.572" gradientUnits="userSpaceOnUse">
<stop stop-color="#FF928E"/>
<stop offset="1" stop-color="#FEB3B1"/>
</linearGradient>
</defs>
</svg>
